<mxfile host="app.diagrams.net" modified="2024-07-07T00:33:10.892Z" agent="Mozilla/5.0 (Windows NT 10.0; Win64; x64) AppleWebKit/537.36 (KHTML, like Gecko) Chrome/126.0.0.0 Safari/537.36" etag="0SbW0793xqbZ9zofVwqD" version="24.6.4" type="github">
  <diagram name="Page-1" id="2YBvvXClWsGukQMizWep">
    <mxGraphModel dx="733" dy="398" grid="1" gridSize="10" guides="1" tooltips="1" connect="1" arrows="1" fold="1" page="1" pageScale="1" pageWidth="850" pageHeight="1100" math="0" shadow="0">
      <root>
        <mxCell id="0" />
        <mxCell id="1" parent="0" />
        <mxCell id="0CG8eFZvMGMA5leofqo7-1" value="" style="shape=umlActor;verticalLabelPosition=bottom;verticalAlign=top;html=1;outlineConnect=0;" vertex="1" parent="1">
          <mxGeometry x="240" y="70" width="30" height="60" as="geometry" />
        </mxCell>
        <mxCell id="0CG8eFZvMGMA5leofqo7-5" value="Alternative" style="shape=umlFrame;whiteSpace=wrap;html=1;pointerEvents=0;recursiveResize=0;container=1;collapsible=0;width=90;height=30;" vertex="1" parent="1">
          <mxGeometry x="150" y="200" width="480" height="180" as="geometry" />
        </mxCell>
        <mxCell id="0CG8eFZvMGMA5leofqo7-6" value="thành công" style="text;html=1;" vertex="1" parent="0CG8eFZvMGMA5leofqo7-5">
          <mxGeometry width="100" height="20" relative="1" as="geometry">
            <mxPoint x="20" y="40" as="offset" />
          </mxGeometry>
        </mxCell>
        <mxCell id="0CG8eFZvMGMA5leofqo7-7" value="" style="line;strokeWidth=1;dashed=1;labelPosition=center;verticalLabelPosition=bottom;align=left;verticalAlign=top;spacingLeft=20;spacingTop=15;html=1;whiteSpace=wrap;" vertex="1" parent="0CG8eFZvMGMA5leofqo7-5">
          <mxGeometry y="52.5" width="480" height="75" as="geometry" />
        </mxCell>
        <mxCell id="0CG8eFZvMGMA5leofqo7-35" value="Thông báo tạo chuyến mới thất bại" style="text;html=1;align=center;verticalAlign=middle;resizable=0;points=[];autosize=1;strokeColor=none;fillColor=none;" vertex="1" parent="0CG8eFZvMGMA5leofqo7-5">
          <mxGeometry x="135" y="120" width="210" height="30" as="geometry" />
        </mxCell>
        <mxCell id="0CG8eFZvMGMA5leofqo7-36" value="thất bại" style="text;html=1;align=center;verticalAlign=middle;resizable=0;points=[];autosize=1;strokeColor=none;fillColor=none;" vertex="1" parent="0CG8eFZvMGMA5leofqo7-5">
          <mxGeometry x="20" y="108" width="60" height="30" as="geometry" />
        </mxCell>
        <mxCell id="0CG8eFZvMGMA5leofqo7-15" value="HeThong" style="shape=umlLifeline;perimeter=lifelinePerimeter;whiteSpace=wrap;html=1;container=1;dropTarget=0;collapsible=0;recursiveResize=0;outlineConnect=0;portConstraint=eastwest;newEdgeStyle={&quot;edgeStyle&quot;:&quot;elbowEdgeStyle&quot;,&quot;elbow&quot;:&quot;vertical&quot;,&quot;curved&quot;:0,&quot;rounded&quot;:0};" vertex="1" parent="1">
          <mxGeometry x="520" y="70" width="100" height="310" as="geometry" />
        </mxCell>
        <mxCell id="0CG8eFZvMGMA5leofqo7-16" value="" style="html=1;points=[[0,0,0,0,5],[0,1,0,0,-5],[1,0,0,0,5],[1,1,0,0,-5]];perimeter=orthogonalPerimeter;outlineConnect=0;targetShapes=umlLifeline;portConstraint=eastwest;newEdgeStyle={&quot;curved&quot;:0,&quot;rounded&quot;:0};fillColor=#808080;" vertex="1" parent="0CG8eFZvMGMA5leofqo7-15">
          <mxGeometry x="45" y="70" width="10" height="240" as="geometry" />
        </mxCell>
        <mxCell id="0CG8eFZvMGMA5leofqo7-26" value="" style="endArrow=none;dashed=1;html=1;dashPattern=1 3;strokeWidth=2;rounded=0;exitX=0.211;exitY=1.016;exitDx=0;exitDy=0;exitPerimeter=0;" edge="1" parent="1" source="0CG8eFZvMGMA5leofqo7-5" target="0CG8eFZvMGMA5leofqo7-1">
          <mxGeometry width="50" height="50" relative="1" as="geometry">
            <mxPoint x="270" y="451" as="sourcePoint" />
            <mxPoint x="430" y="290" as="targetPoint" />
          </mxGeometry>
        </mxCell>
        <mxCell id="0CG8eFZvMGMA5leofqo7-27" value="Quản trị viên" style="text;html=1;align=center;verticalAlign=middle;resizable=0;points=[];autosize=1;strokeColor=none;fillColor=none;" vertex="1" parent="1">
          <mxGeometry x="210" y="40" width="90" height="30" as="geometry" />
        </mxCell>
        <mxCell id="0CG8eFZvMGMA5leofqo7-29" value="" style="endArrow=classic;html=1;rounded=0;" edge="1" parent="1" target="0CG8eFZvMGMA5leofqo7-42">
          <mxGeometry width="50" height="50" relative="1" as="geometry">
            <mxPoint x="260" y="170" as="sourcePoint" />
            <mxPoint x="440" y="150" as="targetPoint" />
          </mxGeometry>
        </mxCell>
        <mxCell id="0CG8eFZvMGMA5leofqo7-30" value="Đăng nhập vào hệ thống" style="text;html=1;align=center;verticalAlign=middle;resizable=0;points=[];autosize=1;strokeColor=none;fillColor=none;" vertex="1" parent="1">
          <mxGeometry x="250" y="140" width="160" height="30" as="geometry" />
        </mxCell>
        <mxCell id="0CG8eFZvMGMA5leofqo7-31" value="" style="html=1;verticalAlign=bottom;labelBackgroundColor=none;endArrow=open;endFill=0;dashed=1;rounded=0;" edge="1" parent="1" source="0CG8eFZvMGMA5leofqo7-15">
          <mxGeometry width="160" relative="1" as="geometry">
            <mxPoint x="340" y="340" as="sourcePoint" />
            <mxPoint x="250" y="340" as="targetPoint" />
          </mxGeometry>
        </mxCell>
        <mxCell id="0CG8eFZvMGMA5leofqo7-33" value="" style="html=1;verticalAlign=bottom;labelBackgroundColor=none;endArrow=open;endFill=0;dashed=1;rounded=0;" edge="1" parent="1" source="0CG8eFZvMGMA5leofqo7-15">
          <mxGeometry width="160" relative="1" as="geometry">
            <mxPoint x="280" y="250" as="sourcePoint" />
            <mxPoint x="250" y="250" as="targetPoint" />
          </mxGeometry>
        </mxCell>
        <mxCell id="0CG8eFZvMGMA5leofqo7-34" value="Thông báo tạo chuyến mới thành công" style="text;html=1;align=center;verticalAlign=middle;resizable=0;points=[];autosize=1;strokeColor=none;fillColor=none;" vertex="1" parent="1">
          <mxGeometry x="275" y="228" width="230" height="30" as="geometry" />
        </mxCell>
        <mxCell id="0CG8eFZvMGMA5leofqo7-41" value="TaiKhoan" style="shape=umlLifeline;perimeter=lifelinePerimeter;whiteSpace=wrap;html=1;container=1;dropTarget=0;collapsible=0;recursiveResize=0;outlineConnect=0;portConstraint=eastwest;newEdgeStyle={&quot;edgeStyle&quot;:&quot;elbowEdgeStyle&quot;,&quot;elbow&quot;:&quot;vertical&quot;,&quot;curved&quot;:0,&quot;rounded&quot;:0};" vertex="1" parent="1">
          <mxGeometry x="355" y="70" width="100" height="310" as="geometry" />
        </mxCell>
        <mxCell id="0CG8eFZvMGMA5leofqo7-42" value="" style="html=1;points=[[0,0,0,0,5],[0,1,0,0,-5],[1,0,0,0,5],[1,1,0,0,-5]];perimeter=orthogonalPerimeter;outlineConnect=0;targetShapes=umlLifeline;portConstraint=eastwest;newEdgeStyle={&quot;curved&quot;:0,&quot;rounded&quot;:0};" vertex="1" parent="0CG8eFZvMGMA5leofqo7-41">
          <mxGeometry x="45" y="60" width="10" height="60" as="geometry" />
        </mxCell>
        <mxCell id="0CG8eFZvMGMA5leofqo7-43" value="" style="endArrow=classic;html=1;rounded=0;exitX=1.013;exitY=1.011;exitDx=0;exitDy=0;exitPerimeter=0;" edge="1" parent="1" source="0CG8eFZvMGMA5leofqo7-30" target="0CG8eFZvMGMA5leofqo7-16">
          <mxGeometry width="50" height="50" relative="1" as="geometry">
            <mxPoint x="390" y="280" as="sourcePoint" />
            <mxPoint x="440" y="230" as="targetPoint" />
          </mxGeometry>
        </mxCell>
        <mxCell id="0CG8eFZvMGMA5leofqo7-45" value="Nhập thông tin chuyến mới" style="text;html=1;align=center;verticalAlign=middle;resizable=0;points=[];autosize=1;strokeColor=none;fillColor=none;" vertex="1" parent="1">
          <mxGeometry x="400" y="148" width="170" height="30" as="geometry" />
        </mxCell>
      </root>
    </mxGraphModel>
  </diagram>
</mxfile>
